<?xml version="1.0" standalone="no"?>
<!DOCTYPE svg PUBLIC "-//W3C//DTD SVG 20010904//EN"
 "http://www.w3.org/TR/2001/REC-SVG-20010904/DTD/svg10.dtd">
<svg version="1.0" xmlns="http://www.w3.org/2000/svg"
 width="200.000000pt" height="125.000000pt" viewBox="0 0 200.000000 125.000000"
 preserveAspectRatio="xMidYMid meet">
<metadata>
Created by potrace 1.16, written by Peter Selinger 2001-2019
</metadata>
<g transform="translate(0.000000,1250.000000) scale(0.100000,-0.100000)"
fill="#000000" stroke="none">
<path d="M8720 12115 c-288 -42 -527 -134 -771 -297 -150 -100 -349 -293 -452
-438 -82 -116 -195 -342 -235 -470 -73 -232 -82 -327 -82 -882 l0 -468 1460 0
1460 0 0 -255 0 -255 -2144 0 c-1434 0 -2178 -3 -2247 -11 -542 -55 -1029
-350 -1322 -800 -145 -222 -236 -470 -267 -729 -8 -68 -10 -458 -8 -1375 5
-1430 0 -1328 78 -1575 181 -573 669 -1025 1265 -1171 184 -45 262 -51 733
-56 l452 -5 0 669 c0 667 7 852 36 1011 128 688 693 1248 1404 1390 162 33
225 34 1765 30 l1540 -3 126 27 c421 91 769 295 1025 600 239 285 369 598 404
973 14 148 14 2351 0 2500 -23 241 -74 424 -175 627 -267 532 -787 893 -1395
968 -129 15 -2539 12 -2650 -5z m-156 -901 c149 -36 289 -153 355 -295 43 -94
54 -141 53 -241 -2 -136 -58 -265 -160 -367 -108 -106 -242 -161 -397 -161
-160 0 -290 53 -400 164 -86 87 -131 174 -152 292 -12 73 -12 95 0 168 57 325
368 521 701 440z"/>
<path d="M13360 8483 c0 -667 -7 -852 -36 -1011 -128 -688 -693 -1248 -1404
-1390 -162 -33 -225 -34 -1765 -30 l-1540 3 -126 -27 c-421 -91 -769 -295
-1025 -600 -239 -285 -369 -598 -404 -973 -14 -148 -14 -2351 0 -2500 23 -241
74 -424 175 -627 267 -532 788 -893 1395 -968 54 -6 525 -10 1312 -10 1053 0
1243 2 1338 15 291 41 537 137 789 308 133 90 340 294 434 427 82 116 195 342
235 470 73 232 82 327 82 882 l0 468 -1460 0 -1460 0 0 255 0 255 2144 0
c1434 0 2178 3 2247 11 542 55 1029 350 1322 800 145 222 236 470 267 729 8
68 10 458 8 1375 -5 1430 0 1328 -78 1575 -181 573 -669 1025 -1265 1171 -184
45 -262 51 -732 56 l-453 5 0 -669z m-1635 -6168 c177 -45 319 -171 387 -341
49 -122 39 -292 -23 -420 -42 -86 -149 -196 -235 -241 -284 -150 -641 -35
-773 248 -43 94 -54 141 -53 241 2 235 174 448 413 512 72 19 210 20 284 1z"/>
</g>
</svg>
